<?xml version="1.0" encoding="UTF-8"?>
<svg version="1.1" xmlns="http://www.w3.org/2000/svg" width="96" height="96">
<path d="M0 0 C0.78890625 -0.00386719 1.5778125 -0.00773438 2.390625 -0.01171875 C3.21046875 -0.00011719 4.0303125 0.01148438 4.875 0.0234375 C6.10476562 0.00603516 6.10476562 0.00603516 7.359375 -0.01171875 C8.54273437 -0.00591797 8.54273437 -0.00591797 9.75 0 C10.46929687 0.00338379 11.18859375 0.00676758 11.9296875 0.01025391 C14.40042299 0.50328471 15.13192096 1.63880121 16.875 3.3984375 C18.77908559 3.88092647 18.77908559 3.88092647 20.8515625 3.875 C21.98078125 3.92140625 21.98078125 3.92140625 23.1328125 3.96875 C23.91398437 3.98679687 24.69515625 4.00484375 25.5 4.0234375 C33.77027027 4.29370777 33.77027027 4.29370777 34.875 5.3984375 C34.91592937 7.73141183 34.91741723 10.06548975 34.875 12.3984375 C33.555 12.3984375 32.235 12.3984375 30.875 12.3984375 C30.88388245 13.14123962 30.89276489 13.88404175 30.9019165 14.64935303 C30.98209744 21.65293655 31.04298186 28.65636085 31.08224869 35.66027451 C31.10311513 39.26102036 31.13141421 42.86138666 31.17675781 46.46191406 C31.22025125 49.93731663 31.24414421 53.41235438 31.25450897 56.88800812 C31.26548615 58.85789534 31.296707 60.82763597 31.32818604 62.79730225 C31.32848816 63.99824524 31.32879028 65.19918823 31.32910156 66.43652344 C31.33798401 67.49353455 31.34686646 68.55054565 31.35601807 69.6395874 C30.74544505 73.14149212 29.71182262 74.30441439 26.875 76.3984375 C24.75048828 76.90637207 24.75048828 76.90637207 22.4453125 76.91601562 C21.5776123 76.92862427 20.70991211 76.94123291 19.81591797 76.95422363 C18.88666504 76.94612671 17.95741211 76.93802979 17 76.9296875 C16.03852051 76.9335144 15.07704102 76.93734131 14.08642578 76.94128418 C12.0556534 76.94400352 10.02484601 76.93664079 7.99414062 76.91992188 C4.8859243 76.89851275 1.78001944 76.91972296 -1.328125 76.9453125 C-3.30208843 76.94266923 -5.27605043 76.93754426 -7.25 76.9296875 C-8.64387939 76.94183289 -8.64387939 76.94183289 -10.06591797 76.95422363 C-10.93361816 76.94161499 -11.80131836 76.92900635 -12.6953125 76.91601562 C-13.45602051 76.91283325 -14.21672852 76.90965088 -15.00048828 76.90637207 C-18.07446184 76.17143734 -19.24540709 74.90982305 -21.125 72.3984375 C-21.60601807 69.6395874 -21.60601807 69.6395874 -21.57910156 66.43652344 C-21.57879944 65.23558044 -21.57849731 64.03463745 -21.57818604 62.79730225 C-21.55754089 61.50552063 -21.53689575 60.21373901 -21.515625 58.8828125 C-21.50816071 57.54332321 -21.50246866 56.20382298 -21.49847412 54.86431885 C-21.48323213 51.34592314 -21.44396418 47.82819235 -21.3996582 44.31005859 C-21.35867364 40.71721389 -21.3404564 37.1242613 -21.3203125 33.53125 C-21.27746745 26.48670784 -21.20923446 19.44261618 -21.125 12.3984375 C-22.445 12.3984375 -23.765 12.3984375 -25.125 12.3984375 C-25.16741723 10.06548975 -25.16592937 7.73141183 -25.125 5.3984375 C-22.86158529 3.13502279 -16.6101747 4.04330952 -13.3828125 3.96875 C-12.63 3.9378125 -11.8771875 3.906875 -11.1015625 3.875 C-10.06636475 3.845271 -10.06636475 3.845271 -9.01025391 3.81494141 C-7.00673197 3.55088784 -7.00673197 3.55088784 -5.63427734 1.89355469 C-3.69100456 -0.03148616 -2.69537397 0.01267985 0 0 Z " fill="#FE3E01" transform="translate(43.125,9.6015625)"/>
<path d="M0 0 C0.78890625 -0.00386719 1.5778125 -0.00773438 2.390625 -0.01171875 C3.21046875 -0.00011719 4.0303125 0.01148438 4.875 0.0234375 C6.10476562 0.00603516 6.10476562 0.00603516 7.359375 -0.01171875 C8.54273437 -0.00591797 8.54273437 -0.00591797 9.75 0 C10.46929687 0.00338379 11.18859375 0.00676758 11.9296875 0.01025391 C14.40042299 0.50328471 15.13192096 1.63880121 16.875 3.3984375 C18.77908559 3.88092647 18.77908559 3.88092647 20.8515625 3.875 C21.98078125 3.92140625 21.98078125 3.92140625 23.1328125 3.96875 C23.91398437 3.98679687 24.69515625 4.00484375 25.5 4.0234375 C33.77027027 4.29370777 33.77027027 4.29370777 34.875 5.3984375 C34.875 7.7084375 34.875 10.0184375 34.875 12.3984375 C15.075 12.3984375 -4.725 12.3984375 -25.125 12.3984375 C-25.125 5.3984375 -25.125 5.3984375 -24.125 4.3984375 C-20.54351762 4.1948585 -16.96889296 4.05159674 -13.3828125 3.96875 C-12.63 3.9378125 -11.8771875 3.906875 -11.1015625 3.875 C-10.06636475 3.845271 -10.06636475 3.845271 -9.01025391 3.81494141 C-7.00673197 3.55088784 -7.00673197 3.55088784 -5.63427734 1.89355469 C-3.69100456 -0.03148616 -2.69537397 0.01267985 0 0 Z " fill="#FF6D3F" transform="translate(43.125,9.6015625)"/>
<path d="M0 0 C3.81684226 1.55500981 6.19195732 4.03595495 9 7 C11.92101014 5.80995883 13.29946228 4.67807805 15.5 2.3125 C18 0 18 0 20.1875 0.0625 C22 1 22 1 24 3 C23.67861144 6.36432276 22.35354137 7.98817404 19.9375 10.25 C19.38964844 10.77078125 18.84179688 11.2915625 18.27734375 11.828125 C17.85582031 12.21484375 17.43429688 12.6015625 17 13 C18.19004117 15.92101014 19.32192195 17.29946228 21.6875 19.5 C24 22 24 22 23.9375 24.1875 C23 26 23 26 21 28 C17.63567724 27.67861144 16.01182596 26.35354137 13.75 23.9375 C13.22921875 23.38964844 12.7084375 22.84179688 12.171875 22.27734375 C11.78515625 21.85582031 11.3984375 21.43429688 11 21 C7.18315774 22.55500981 4.80804268 25.03595495 2 28 C-1.78496138 26.48601545 -2.0072198 25.9855604 -4 22 C-0.535 18.535 -0.535 18.535 3 15 C1.27215598 10.96049732 1.27215598 10.96049732 -1.6875 8.5 C-4 6 -4 6 -4 3.8125 C-3 2 -3 2 0 0 Z " fill="#FAF5F4" transform="translate(38,40)"/>
<path d="M0 0 C1.07894531 -0.00676758 1.07894531 -0.00676758 2.1796875 -0.01367188 C2.96859375 -0.01882813 3.7575 -0.02398437 4.5703125 -0.02929688 C5.80007812 -0.00609375 5.80007812 -0.00609375 7.0546875 0.01757812 C7.87453125 0.00210937 8.694375 -0.01335938 9.5390625 -0.02929688 C10.32796875 -0.02414062 11.116875 -0.01898438 11.9296875 -0.01367188 C12.64898437 -0.00916016 13.36828125 -0.00464844 14.109375 0 C16.0546875 0.51757812 16.0546875 0.51757812 19.0546875 4.51757812 C11.1346875 4.51757812 3.2146875 4.51757812 -4.9453125 4.51757812 C-1.9453125 0.51757812 -1.9453125 0.51757812 0 0 Z " fill="#FF3D00" transform="translate(40.9453125,9.482421875)"/>
</svg>
